<svg id="Logo" xmlns="http://www.w3.org/2000/svg" viewBox="0 0 297.72 75.5">
  <defs>
    <style>
      .cls-1 {
        fill: #2c2c2c;
      }
    </style>
  </defs>
  <title>gk-logo</title>
  <g>
    <path class="cls-1" d="M43.58,1H56.21V28.18h0.2L69.63,1H82.25L68.59,28.38,84,74.51H71.17L60.88,40.31h-0.2l-4.47,8.15v26H43.58V1Z"/>
    <path class="cls-1" d="M89.36,1H101L116.45,43h0.2V1H128V74.51H117l-16.1-45.93h-0.2V74.51H89.36V1Z"/>
    <path class="cls-1" d="M140.26,18.84a22.74,22.74,0,0,1,1.17-7.33,16.41,16.41,0,0,1,3.55-6,16.56,16.56,0,0,1,6-4,25.95,25.95,0,0,1,17.2,0,16.56,16.56,0,0,1,6,4,16.42,16.42,0,0,1,3.55,6,22.74,22.74,0,0,1,1.17,7.33V56.71A22.79,22.79,0,0,1,177.76,64a16.15,16.15,0,0,1-3.55,6,16.7,16.7,0,0,1-6,4A25.95,25.95,0,0,1,151,74a16.7,16.7,0,0,1-6-4,16.16,16.16,0,0,1-3.55-6,22.74,22.74,0,0,1-1.17-7.33V18.84Zm14,43.69q1.42,2,5.29,2t5.29-2q1.42-2,1.42-6.16V19.14q0-4.18-1.42-6.16t-5.29-2q-3.88,0-5.29,2t-1.42,6.16V56.36Q152.88,60.54,154.3,62.53Z"/>
    <path class="cls-1" d="M196.67,1l7.71,46.82h0.2L212.85,1h10.4l8.56,46.82H232L239.07,1H250.7L237.93,74.51h-10.6l-9.16-48.56H218l-8.56,48.56h-10.6L185,1h11.63Z"/>
    <path class="cls-1" d="M259.05,1h11.68L286.14,43h0.2V1h11.38V74.51h-11l-16.1-45.93h-0.2V74.51H259.05V1Z"/>
  </g>
  <path class="cls-1" d="M0,1.38L36.54,37.85,0,74.59V60.38L22.65,37.75,0,15.3V1.38Z"/>
</svg>
