<svg id="bg" xmlns="http://www.w3.org/2000/svg" viewBox="0 0 1130 720">
  <defs>
    <style>
      .cls-1 {
        fill: #fff;
      }

      .cls-2, .cls-3 {
        fill: #5cb02b;
      }

      .cls-3 {
        fill-rule: evenodd;
      }
    </style>
  </defs>
  <title>tsw-logo</title>
  <rect class="cls-1" width="1130" height="720"/>
  <g>
    <path class="cls-2" d="M336.2,415V406a17.11,17.11,0,0,0,3.72,2.47,30.05,30.05,0,0,0,4.57,1.86,38.58,38.58,0,0,0,4.82,1.17,28.05,28.05,0,0,0,4.48.4q7.1,0,10.6-2.64A9.84,9.84,0,0,0,366.72,397a13.31,13.31,0,0,0-3.22-3.59,30.94,30.94,0,0,0-4.87-3.11c-1.89-1-3.9-2-6.07-3.14s-4.42-2.34-6.4-3.53a27.62,27.62,0,0,1-5.17-3.93,16.49,16.49,0,0,1-3.45-4.87,16.56,16.56,0,0,1,.7-14.17,17,17,0,0,1,5.17-5.46,23.49,23.49,0,0,1,7.31-3.2,33.25,33.25,0,0,1,8.34-1c6.46,0,11.18.77,14.14,2.33V362c-3.87-2.69-8.85-4-14.91-4a24,24,0,0,0-5,.53,14.34,14.34,0,0,0-4.48,1.7,10,10,0,0,0-3.2,3.07,8.07,8.07,0,0,0-1.23,4.57,9.43,9.43,0,0,0,.94,4.34A10.8,10.8,0,0,0,348,375.5a27.69,27.69,0,0,0,4.46,2.92c1.75,1,3.78,2,6.06,3.12s4.57,2.37,6.68,3.65a30.39,30.39,0,0,1,5.53,4.25,19,19,0,0,1,3.78,5.17,14.5,14.5,0,0,1,1.39,6.49,16.48,16.48,0,0,1-1.89,8.21,15.51,15.51,0,0,1-5.12,5.46,22.45,22.45,0,0,1-7.43,3,40.92,40.92,0,0,1-8.88.94,35,35,0,0,1-3.84-.25c-1.51-.17-3.08-0.4-4.67-0.73a37.57,37.57,0,0,1-4.5-1.19,13.63,13.63,0,0,1-3.4-1.58"/>
    <path class="cls-2" d="M396.71,359v26.9h8.05c5.29,0,9.35-1.22,12.13-3.64s4.2-5.85,4.2-10.27q0-13-15.38-13h-9Zm0,33.84v24.79H389V352.08h18q10.51,0,16.31,5.12t5.78,14.45a19.88,19.88,0,0,1-6.42,15.27q-6.44,5.95-17.36,5.95h-8.65Z"/>
    <path class="cls-2" d="M467,392.37l-10.29-27.94a27.42,27.42,0,0,1-1-4.39h-0.19a26,26,0,0,1-1,4.39l-10.21,27.94H467Zm18,25.29h-8.51l-6.95-18.39H441.75l-6.54,18.39h-8.56l25.16-65.58h8Z"/>
    <path class="cls-2" d="M538.06,414.91q-7.26,3.84-18.11,3.84-14,0-22.42-9t-8.41-23.63q0-15.74,9.48-25.43t24-9.69q9.32,0,15.45,2.69v8.19a31.37,31.37,0,0,0-15.55-3.93q-11.29,0-18.31,7.54t-7,20.17q0,12,6.56,19.09T521,411.85a32.37,32.37,0,0,0,17.11-4.39v7.45Z"/>
    <polygon class="cls-2" points="586.17 417.66 551.42 417.66 551.42 352.08 584.72 352.08 584.72 359.03 559.11 359.03 559.11 380.85 582.8 380.85 582.8 387.75 559.11 387.75 559.11 410.71 586.17 410.71 586.17 417.66"/>
    <path class="cls-2" d="M358.81,441.14l-18.51,65.58h-9l-13.5-47.93a30.43,30.43,0,0,1-1-6.68h-0.19a33.37,33.37,0,0,1-1.19,6.59l-13.58,48h-8.91l-19.22-65.58h8.46l14,50.3a33.57,33.57,0,0,1,1.09,6.59h0.23a37.8,37.8,0,0,1,1.42-6.59l14.49-50.3h7.37l13.91,50.67a38.17,38.17,0,0,1,1.09,6.12h0.19a35.47,35.47,0,0,1,1.23-6.31l13.39-50.48h8.32Z"/>
    <path class="cls-2" d="M395.52,447a21.15,21.15,0,0,0-16.78,7.45q-6.44,7.47-6.45,19.58t6.29,19.51A20.52,20.52,0,0,0,395,500.91q10.79,0,17-7t6.21-19.72q0-13-6-20.07T395.52,447M395,507.81q-14,0-22.34-9.2t-8.4-23.92q0-15.83,8.55-25.24T396.07,440q13.6,0,21.89,9.13t8.3,23.93q0,16-8.51,25.38T395,507.81Z"/>
    <path class="cls-2" d="M446.83,448.08v23.79h10.43a15.8,15.8,0,0,0,5.32-.87,12,12,0,0,0,4.23-2.5,11.27,11.27,0,0,0,2.79-4,13.26,13.26,0,0,0,1-5.28,10.25,10.25,0,0,0-3.4-8.21c-2.26-2-5.56-3-9.85-3H446.83Zm39.34,58.63H477l-11-18.39a42.11,42.11,0,0,0-2.92-4.37,16.64,16.64,0,0,0-2.9-2.93,9.93,9.93,0,0,0-3.2-1.67,12.86,12.86,0,0,0-3.87-.53h-6.31v27.9h-7.68V441.14h19.58a27.81,27.81,0,0,1,7.93,1.08,17.64,17.64,0,0,1,6.31,3.26,15.09,15.09,0,0,1,4.18,5.46,18,18,0,0,1,1.51,7.66,18.43,18.43,0,0,1-1,6.29,16.25,16.25,0,0,1-2.92,5.09,17.6,17.6,0,0,1-4.57,3.82,23.66,23.66,0,0,1-6,2.45v0.19A13.56,13.56,0,0,1,467,478.1a16.34,16.34,0,0,1,2.29,2.23,27.12,27.12,0,0,1,2.18,2.9c0.72,1.08,1.51,2.34,2.39,3.76Z"/>
    <path class="cls-2" d="M540.83,506.72H530.12l-25.33-30a16.81,16.81,0,0,1-1.73-2.28h-0.19v32.28h-7.68V441.14h7.68V472H503a17.63,17.63,0,0,1,1.73-2.23l24.51-28.58h9.57l-28.13,31.46Z"/>
    <path class="cls-2" d="M546.44,504.06V495a17.12,17.12,0,0,0,3.72,2.47,30.19,30.19,0,0,0,4.57,1.86,38.6,38.6,0,0,0,4.82,1.17,28,28,0,0,0,4.48.4q7.09,0,10.6-2.64A9.84,9.84,0,0,0,577,486.09a13.32,13.32,0,0,0-3.21-3.59,30.91,30.91,0,0,0-4.87-3.11c-1.89-1-3.9-2-6.07-3.14s-4.42-2.34-6.4-3.53a27.64,27.64,0,0,1-5.17-3.93,16.48,16.48,0,0,1-3.45-4.87,16.56,16.56,0,0,1,.7-14.17,17,17,0,0,1,5.17-5.46,23.47,23.47,0,0,1,7.31-3.2,33.24,33.24,0,0,1,8.34-1c6.46,0,11.18.77,14.14,2.32V451q-5.81-4-14.91-4a24,24,0,0,0-5,.53,14.35,14.35,0,0,0-4.48,1.7,10,10,0,0,0-3.2,3.08,8.07,8.07,0,0,0-1.23,4.57,9.42,9.42,0,0,0,.94,4.34,10.8,10.8,0,0,0,2.76,3.34,27.63,27.63,0,0,0,4.46,2.92c1.75,1,3.78,2,6.06,3.12s4.57,2.37,6.68,3.65a30.35,30.35,0,0,1,5.53,4.25,19,19,0,0,1,3.78,5.17,14.49,14.49,0,0,1,1.39,6.49,16.47,16.47,0,0,1-1.89,8.21,15.5,15.5,0,0,1-5.12,5.46,22.45,22.45,0,0,1-7.43,3,40.92,40.92,0,0,1-8.88.94,35,35,0,0,1-3.84-.25c-1.51-.17-3.08-0.4-4.67-0.73a37.6,37.6,0,0,1-4.5-1.19,13.66,13.66,0,0,1-3.4-1.58"/>
    <polygon class="cls-2" points="447.77 269.98 428.83 269.98 428.83 328.61 421.16 328.61 421.16 269.98 402.27 269.98 402.27 263.03 447.77 263.03 447.77 269.98"/>
    <polygon class="cls-2" points="507.37 328.61 499.69 328.61 499.69 298.7 465.75 298.7 465.75 328.61 458.07 328.61 458.07 263.03 465.75 263.03 465.75 291.8 499.69 291.8 499.69 263.03 507.37 263.03 507.37 328.61"/>
    <path class="cls-2" d="M546.44,326V316.9a17.12,17.12,0,0,0,3.72,2.47,30.19,30.19,0,0,0,4.57,1.86,38.68,38.68,0,0,0,4.82,1.17,28.06,28.06,0,0,0,4.48.41q7.09,0,10.6-2.64A9.84,9.84,0,0,0,577,308a13.3,13.3,0,0,0-3.21-3.59,30.87,30.87,0,0,0-4.87-3.11c-1.89-1-3.9-2-6.07-3.14s-4.42-2.34-6.4-3.53a27.68,27.68,0,0,1-5.17-3.93,16.5,16.5,0,0,1-3.45-4.87,16.56,16.56,0,0,1,.7-14.17,17,17,0,0,1,5.17-5.46A23.46,23.46,0,0,1,561,263a33.25,33.25,0,0,1,8.34-1c6.46,0,11.18.77,14.14,2.33v8.65q-5.81-4-14.91-4a24,24,0,0,0-5,.53,14.34,14.34,0,0,0-4.48,1.7,10,10,0,0,0-3.2,3.08,8.07,8.07,0,0,0-1.23,4.57,9.41,9.41,0,0,0,.94,4.34,10.79,10.79,0,0,0,2.76,3.34,27.73,27.73,0,0,0,4.46,2.92c1.75,1,3.78,2,6.06,3.12s4.57,2.37,6.68,3.65a30.34,30.34,0,0,1,5.53,4.25,19,19,0,0,1,3.78,5.17,14.5,14.5,0,0,1,1.39,6.49,16.48,16.48,0,0,1-1.89,8.21,15.51,15.51,0,0,1-5.12,5.46,22.45,22.45,0,0,1-7.43,3,40.93,40.93,0,0,1-8.88.94,35.09,35.09,0,0,1-3.84-.25c-1.51-.17-3.08-0.41-4.67-0.73a37.43,37.43,0,0,1-4.5-1.19,13.66,13.66,0,0,1-3.4-1.58"/>
    <rect class="cls-2" x="524.57" y="263.03" width="7.68" height="65.58"/>
    <g>
      <path class="cls-3" d="M664.36,518.51l93.93,43.11V312.93l-93.93-42.06V518.51ZM737.75,415h0a6.05,6.05,0,0,1,6,6v12.83a6.05,6.05,0,0,1-6,6h0a6.05,6.05,0,0,1-6-6V421A6.05,6.05,0,0,1,737.75,415Z"/>
      <polygon class="cls-3" points="626.92 244.93 626.92 531.39 662.36 518.41 662.36 269.98 662.32 269.96 820.95 210.11 820.95 459.23 856.35 445.89 856.35 158.38 626.92 244.93"/>
    </g>
  </g>
</svg>
