<?xml version="1.0" standalone="no"?>
<!DOCTYPE svg PUBLIC "-//W3C//DTD SVG 20010904//EN"
 "http://www.w3.org/TR/2001/REC-SVG-20010904/DTD/svg10.dtd">
<svg version="1.0" xmlns="http://www.w3.org/2000/svg"
 width="512.000000pt" height="512.000000pt" viewBox="0 0 512.000000 512.000000"
 preserveAspectRatio="xMidYMid meet">
<metadata>
Created by potrace 1.11, written by Peter Selinger 2001-2013
</metadata>
<g transform="translate(0.000000,512.000000) scale(0.100000,-0.100000)"
fill="#000000" stroke="none">
<path d="M400 4179 l0 -384 33 -35 c18 -19 88 -98 157 -175 69 -77 130 -144
136 -150 6 -5 44 -48 85 -95 41 -46 83 -94 94 -106 11 -11 34 -36 50 -55 79
-88 271 -303 290 -323 6 -6 50 -56 99 -111 50 -55 105 -116 123 -136 32 -34
33 -36 15 -55 -10 -10 -60 -66 -111 -124 -52 -58 -108 -121 -125 -140 -17 -19
-89 -100 -161 -180 -71 -80 -131 -147 -134 -150 -3 -3 -37 -41 -76 -85 -38
-44 -74 -85 -80 -91 -5 -6 -37 -41 -70 -79 -33 -37 -71 -80 -85 -95 -14 -15
-54 -60 -90 -101 -36 -40 -84 -93 -107 -119 l-43 -45 0 -387 c0 -229 4 -388 9
-388 5 0 11 4 13 9 2 5 30 40 64 77 34 38 97 109 140 159 43 49 86 97 94 105
8 9 44 49 80 90 77 88 120 136 295 335 44 50 94 105 110 124 17 19 37 42 45
51 19 20 137 154 176 199 16 19 36 41 44 50 9 9 47 52 85 96 39 44 79 89 90
101 11 12 45 50 76 85 108 123 332 375 394 444 l63 70 -20 25 c-11 14 -34 41
-52 60 -28 31 -127 142 -365 409 -36 41 -71 79 -76 85 -6 6 -102 115 -215 241
-113 127 -207 232 -210 235 -3 3 -32 36 -65 74 -33 39 -71 81 -85 95 -14 14
-75 82 -135 151 -61 69 -117 132 -125 140 -8 8 -67 74 -129 145 -63 72 -122
137 -130 146 -13 13 -79 87 -153 172 -17 19 -18 3 -18 -364z"/>
<path d="M2763 2558 l0 -1998 306 2 306 3 1 705 1 705 108 223 c60 122 110
220 113 217 3 -3 62 -214 77 -275 6 -26 206 -773 220 -825 20 -69 96 -356 101
-380 3 -11 26 -99 53 -195 l47 -175 313 -3 312 -2 -7 22 c-4 13 -13 43 -19 68
-7 25 -65 221 -129 435 -64 215 -135 453 -157 530 -23 77 -47 158 -55 180 -7
22 -54 177 -103 345 -50 168 -131 442 -181 609 -49 167 -90 310 -90 316 0 12
119 290 139 326 5 9 27 58 49 110 22 52 54 123 70 159 74 161 392 882 392 889
0 4 -137 8 -303 8 l-304 0 -43 -101 c-37 -87 -58 -133 -111 -251 -4 -11 -47
-110 -95 -220 -47 -110 -94 -219 -105 -242 -10 -23 -19 -44 -19 -47 0 -3 -11
-30 -25 -61 -43 -95 -69 -154 -156 -357 -46 -108 -86 -195 -88 -193 -2 3 -4
334 -5 737 l-1 733 -306 1 -306 1 0 -1999z"/>
</g>
</svg>
