<?xml version="1.0" standalone="no"?>
<!DOCTYPE svg PUBLIC "-//W3C//DTD SVG 20010904//EN"
 "http://www.w3.org/TR/2001/REC-SVG-20010904/DTD/svg10.dtd">
<svg version="1.0" xmlns="http://www.w3.org/2000/svg"
 width="512.000000pt" height="512.000000pt" viewBox="0 0 512.000000 512.000000"
 preserveAspectRatio="xMidYMid meet">
<metadata>
Created by potrace 1.11, written by Peter Selinger 2001-2013
</metadata>
<g transform="translate(0.000000,512.000000) scale(0.100000,-0.100000)"
fill="#000000" stroke="none">
<path d="M2676 4310 c-3 -8 -5 -801 -4 -1762 0 -1296 3 -1748 12 -1750 6 -3
151 -4 321 -4 l310 1 1 625 2 625 85 147 c48 80 97 166 110 189 14 24 29 45
34 46 5 2 19 -27 30 -64 22 -70 116 -367 253 -793 43 -135 104 -326 135 -425
54 -173 63 -202 65 -208 1 -1 12 -33 25 -72 l23 -70 326 0 c179 0 326 3 326 6
0 4 -9 31 -19 61 -19 50 -86 238 -152 426 -16 45 -42 119 -58 165 -16 45 -69
192 -116 327 -48 135 -97 274 -110 310 -35 96 -72 201 -195 550 -61 173 -116
327 -122 342 -11 29 -16 16 142 313 21 39 99 187 175 330 76 143 157 296 180
340 97 180 185 349 185 355 0 7 -637 7 -643 0 -2 -3 -59 -113 -127 -245 -67
-132 -139 -271 -160 -310 -36 -68 -147 -284 -305 -592 -43 -84 -80 -151 -83
-148 -3 2 -4 287 -4 632 0 346 -1 637 -3 648 -4 20 -12 20 -320 20 -272 0
-316 -2 -319 -15z"/>
<path d="M385 3988 l0 -332 75 -71 c241 -226 339 -318 375 -351 17 -15 91 -84
165 -154 74 -70 147 -138 161 -151 15 -13 84 -78 155 -144 70 -66 151 -141
179 -167 l50 -47 -52 -48 c-28 -26 -108 -102 -178 -168 -70 -66 -144 -135
-164 -154 -20 -19 -97 -91 -171 -161 -74 -70 -151 -142 -170 -160 -19 -18 -95
-89 -169 -159 -73 -69 -160 -151 -193 -181 l-60 -56 1 -324 c0 -179 0 -334 0
-346 1 -18 10 -12 59 35 56 53 318 301 410 388 45 43 82 78 382 363 102 96
216 204 254 240 134 127 119 112 501 476 99 94 199 189 223 210 l43 39 -133
126 c-73 69 -146 138 -163 153 -16 15 -90 85 -164 154 -74 70 -144 136 -156
147 -12 11 -57 54 -101 95 -99 94 -346 326 -399 376 -42 39 -268 251 -340 319
-302 286 -409 385 -415 385 -3 0 -5 -149 -5 -332z"/>
</g>
</svg>
